PathFileType	4	(X/Y/Z)	C:/Users/opensim2020/Desktop/walking_exp_matlab/subject03_walking13_straight_01.trc																																																																																																																																								
DataRate	CameraRate	NumFrames	NumMarkers	Units	OrigDataRate	OrigDataStartFrame	OrigNumFrames																																																																																																																																				
100	100	4	46	mm	100	638	185																																																																																																																																				
Frame#	Time	LFHD			RFHD			LBHD			RBHD			C7			T10			CLAV			STRN			RBAK			LSHO			LUPA			LELB			LFRM			LWRA			LWRB			LFIN			RSHO			RUPA			RELB			RFRM			RWRA			RWRB			RFIN			LASI			RASI			LPSI			RPSI			LTHI			LKNE			LTIB			LANK			LHEE			LTOE			RTHI			RKNE			RTIB			RANK			RHEE			RTOE			*39			*40			*41			*42			*43			*44			*45		
		X1	Y1	Z1	X2	Y2	Z2	X3	Y3	Z3	X4	Y4	Z4	X5	Y5	Z5	X6	Y6	Z6	X7	Y7	Z7	X8	Y8	Z8	X9	Y9	Z9	X10	Y10	Z10	X11	Y11	Z11	X12	Y12	Z12	X13	Y13	Z13	X14	Y14	Z14	X15	Y15	Z15	X16	Y16	Z16	X17	Y17	Z17	X18	Y18	Z18	X19	Y19	Z19	X20	Y20	Z20	X21	Y21	Z21	X22	Y22	Z22	X23	Y23	Z23	X24	Y24	Z24	X25	Y25	Z25	X26	Y26	Z26	X27	Y27	Z27	X28	Y28	Z28	X29	Y29	Z29	X30	Y30	Z30	X31	Y31	Z31	X32	Y32	Z32	X33	Y33	Z33	X34	Y34	Z34	X35	Y35	Z35	X36	Y36	Z36	X37	Y37	Z37	X38	Y38	Z38	X39	Y39	Z39	X40	Y40	Z40	X41	Y41	Z41	X42	Y42	Z42	X43	Y43	Z43	X44	Y44	Z44	X45	Y45	Z45	X46	Y46	Z46
																																																																																																																																											
93	0.92	-172.93401	1615.5448	-1058.48499	-195.63672	1622.43152	-927.25433	-289.23941	1549.08142	-1072.2865	-306.93942	1555.93811	-942.76654	-307.01593	1400.95898	-999.09381	-347.59009	1093.26697	-994.66388	-182.82838	1327.72778	-994.44562	-140.50519	1159.75195	-996.71667	-362.44968	1231.66724	-900.20471	-238.99834	1363.34216	-1150.20044	-268.48117	1166.24866	-1217.69458	-271.82178	1043.15588	-1229.88586	-263.97446	912.5296	-1234.65063	-261.97995	791.55536	-1210.38342	-286.78479	802.51031	-1259.57935	-285.93185	717.99017	-1254.24988	-239.81119	1361.73718	-838.65222	-206.15475	1150.47485	-752.83118	-161.34015	1047.37256	-735.04333	-103.57778	923.12262	-731.02527	-46.75071	841.20526	-766.39227	-73.02019	828.1474	-721.0871	-27.90934	769.72729	-729.41046	-190.09151	922.04517	-1105.13794	-201.35532	923.66443	-870.91504	-355.68896	944.89825	-1066.81604	-358.20554	962.21301	-917.57916	-161.48242	631.88275	-1160.55762	-84.94176	473.87616	-1119.08484	-92.97381	277.44867	-1119.80859	-67.69205	68.51999	-1080.47949	-102.89696	27.90408	-1043.03796	79.98802	60.02466	-1050.7522	-300.18472	636.64038	-834.46222	-322.54779	458.68118	-870.1264	-409.24341	284.8194	-869.50153	-484.14661	80.72945	-920.25238	-531.8244	54.64035	-971.70129	-347.64746	31.18662	-931.01172	NaN	NaN	NaN	NaN	NaN	NaN	NaN	NaN	NaN	NaN	NaN	NaN	NaN	NaN	NaN	NaN	NaN	NaN	NaN	NaN	NaN
94	0.93	-158.79167	1613.29541	-1059.00671	-181.71268	1620.50586	-927.82227	-275.13617	1546.67456	-1072.66748	-292.95041	1553.90344	-943.19556	-292.71774	1398.94775	-999.10669	-333.99432	1091.62158	-995.45465	-168.66208	1325.53943	-994.33307	-126.75027	1157.47168	-996.26776	-348.83936	1229.85815	-900.35999	-224.80441	1361.04712	-1150.22998	-257.01678	1163.95715	-1217.3761	-262.48257	1041.15601	-1229.96863	-258.655	910.39386	-1235.53235	-261.13467	789.13147	-1212.03479	-285.17142	801.4422	-1261.43494	-288.41861	716.68561	-1256.57056	-226.03912	1360.01221	-838.61615	-190.66954	1149.63647	-752.39343	-144.10408	1047.31128	-734.57196	-83.43329	924.50006	-730.90186	-24.33972	844.56293	-766.70734	-50.41258	830.36896	-721.43732	-3.55148	773.362	-729.96301	-175.46855	919.81873	-1105.37463	-188.29749	921.5058	-871.08545	-341.09735	942.54443	-1068.45264	-344.97183	960.18066	-919.11865	-149.47813	628.36139	-1161.4082	-69.56944	472.62238	-1117.43286	-69.88824	277.16602	-1119.86682	-35.80748	69.02025	-1082.2019	-69.89339	26.91837	-1045.11694	112.25077	63.89001	-1052.43042	-289.77698	635.5517	-834.81055	-313.75998	457.58746	-870.04358	-403.91367	285.23502	-869.51727	-483.14615	82.56802	-920.13324	-530.93842	57.12394	-971.64978	-347.40756	31.0562	-930.91626	NaN	NaN	NaN	-257.73651	1657.12866	-1027.56641	NaN	NaN	NaN	NaN	NaN	NaN	NaN	NaN	NaN	NaN	NaN	NaN	NaN	NaN	NaN
95	0.94	-144.64032	1611.13989	-1059.54211	-167.73579	1618.68628	-928.3634	-260.93839	1544.42078	-1073.12207	-278.85034	1551.93481	-943.70129	-278.5907	1397.07373	-999.15497	-319.95291	1089.72437	-996.17065	-154.4772	1323.39185	-994.2807	-112.87864	1155.28589	-995.90967	-335.03461	1228.0929	-900.50952	-210.55751	1358.88293	-1150.34375	-245.40125	1162.02051	-1217.24719	-253.11618	1039.42346	-1230.14026	-252.96767	908.66907	-1236.44873	-259.90579	787.12671	-1213.70996	-282.88593	800.77551	-1263.1333	-290.03171	716.11249	-1258.71619	-212.18578	1358.24536	-838.74213	-175.42578	1148.73682	-752.06683	-127.22837	1047.18665	-734.18616	-63.693	925.93335	-730.8985	-2.72081	847.63904	-767.1405	-28.29569	832.61115	-721.97412	20.12285	777.19507	-730.5509	-160.69818	917.73523	-1105.51282	-174.74146	919.60974	-871.54303	-326.43192	940.5047	-1070.1543	-331.57941	958.26233	-920.79767	-137.60147	624.69598	-1162.56006	-54.03662	471.6019	-1116.13586	-48.09885	277.02844	-1119.86841	-6.88624	69.83775	-1083.28784	-40.007	26.44486	-1046.29163	141.58473	67.39896	-1054.2146	-278.87158	634.35364	-835.13019	-304.61563	456.52682	-869.93799	-398.33768	285.84567	-869.46851	-482.07901	84.91199	-919.74615	-530.17957	60.33744	-971.40149	-347.189	30.9401	-930.86761	NaN	NaN	NaN	NaN	NaN	NaN	NaN	NaN	NaN	NaN	NaN	NaN	NaN	NaN	NaN	NaN	NaN	NaN	NaN	NaN	NaN
96	0.95	-130.46419	1609.01929	-1060.01001	-153.65924	1616.93323	-928.87476	-246.7032	1542.28345	-1073.58228	-264.72995	1550.13245	-944.14404	-264.3367	1395.13513	-999.38715	-305.60648	1087.83606	-996.88672	-140.22054	1321.38159	-994.30249	-98.81278	1153.28003	-995.70264	-321.159	1226.43567	-900.69629	-196.13803	1356.94202	-1150.5835	-233.69762	1160.37646	-1217.47339	-243.49629	1038.0459	-1230.57227	-246.79373	907.29254	-1237.31799	-257.6452	785.81903	-1214.94531	-279.72672	800.5235	-1264.62671	-290.76001	716.07849	-1260.54163	-198.25955	1356.53821	-838.92456	-160.39059	1147.83862	-751.79968	-110.80122	1046.99719	-733.90039	-44.54953	927.30316	-730.82635	18.41175	850.81439	-767.68909	-6.79671	834.94452	-722.638	43.19255	781.0708	-731.31543	-145.66794	915.87689	-1105.68237	-161.22964	917.84534	-871.70111	-311.42239	938.50824	-1071.87158	-317.91034	956.30267	-922.49036	-125.06235	621.68243	-1163.64417	-38.79196	470.65195	-1115.13879	-27.66149	276.78494	-1119.6969	19.05437	70.57231	-1083.69202	-13.0348	26.37597	-1046.85095	168.05377	70.64746	-1055.8197	-267.58896	633.19397	-835.39398	-295.11026	455.54657	-869.80267	-392.42142	286.61853	-869.33612	-480.72623	87.43744	-919.53064	-529.7041	64.45238	-970.90137	-346.96854	30.8185	-930.80646	NaN	NaN	NaN	NaN	NaN	NaN	NaN	NaN	NaN	NaN	NaN	NaN	NaN	NaN	NaN	NaN	NaN	NaN	NaN	NaN	NaN
